# xmcd
#
# Track frame offsets: 
#        150
#        14641
#        42695
#        56596
#        75389
#        101032
#        115071
#        120595
#        140367
#        142986
#        195084
#        220674
#
# Disc length: 4407 seconds
#
# Revision: 0
# Processed by: cddbd v1.5.2PL0 Copyright (c) Steve Scherf et al.
# Submitted via: ExactAudioCopy v0.99pb4
#
DISCID=a011350c
DTITLE=Perimeter - Healing by Festering
DYEAR=2006
DGENRE=Metal
TTITLE0=Glaciating Blood
TTITLE1=Sophistication Of Torturing People
TTITLE2=Bloodsucking Parasite Of My Soul
TTITLE3=Felo De Se Guide
TTITLE4=Disembowel The Mankind
TTITLE5=Gulping Broken Glass
TTITLE6=Vanillism SS
TTITLE7=Fear Of Fearing
TTITLE8=Biatch!
TTITLE9=Baptism Of Fire
TTITLE10=Hoc Age
TTITLE11=Bonus: Смех (Videoclip)
EXTD=
EXTT0=
EXTT1=
EXTT2=
EXTT3=
EXTT4=
EXTT5=
EXTT6=
EXTT7=
EXTT8=
EXTT9=
EXTT10=
EXTT11=
PLAYORDER=
